<?xml version="1.0" encoding="UTF-8" standalone="no"?>
<!DOCTYPE svg PUBLIC "-//W3C//DTD SVG 1.1//EN" "http://www.w3.org/Graphics/SVG/1.1/DTD/svg11.dtd">
<svg width="100%" height="100%" viewBox="0 0 197 197" version="1.1" xmlns="http://www.w3.org/2000/svg" xmlns:xlink="http://www.w3.org/1999/xlink" xml:space="preserve" xmlns:serif="http://www.serif.com/" style="fill-rule:evenodd;clip-rule:evenodd;stroke-linejoin:round;stroke-miterlimit:2;">
    <g transform="matrix(1.00701,0,0,1,-194.877,62.1634)">
        <circle cx="291" cy="36" r="96" style="fill:rgb(24,44,102);"/>
    </g>
    <g transform="matrix(1.00701,0,0,1,-194.877,62.1634)">
        <circle cx="291" cy="36" r="80" style="fill:rgb(34,62,143);"/>
    </g>
    <g transform="matrix(1.00701,0,0,1,-194.877,62.1634)">
        <circle cx="291" cy="36" r="64" style="fill:rgb(46,84,194);"/>
    </g>
    <g transform="matrix(1.00701,0,0,1,-194.877,62.1634)">
        <circle cx="291" cy="36" r="48" style="fill:rgb(66,109,235);"/>
    </g>
    <g transform="matrix(1.00701,0,0,1,-194.877,62.1634)">
        <circle cx="291" cy="36" r="32" style="fill:rgb(98,135,245);"/>
    </g>
    <g transform="matrix(1.00701,0,0,1,-194.877,62.1634)">
        <path d="M295.174,47.254C293.874,47.736 292.468,48 291,48C289.532,48 288.126,47.736 286.826,47.254L285.783,36L286.826,24.746C288.126,24.264 289.532,24 291,24C292.468,24 293.874,24.264 295.174,24.746L296.217,36L295.174,47.254Z" style="fill:rgb(255,218,68);fill-rule:nonzero;"/>
        <path d="M303,36C303,41.159 299.743,45.558 295.174,47.253L295.174,24.746C299.743,26.442 303,30.84 303,36Z" style="fill:rgb(216,0,39);fill-rule:nonzero;"/>
        <path d="M279,36C279,30.84 282.257,26.442 286.826,24.746L286.826,47.253C282.257,45.558 279,41.159 279,36Z" style="fill-rule:nonzero;"/>
    </g>
    <g transform="matrix(1.00701,0,0,1,-194.877,62.1634)">
        <path d="M288.927,54.48L291.016,56.014L293.101,54.48L292.306,56.958L294.427,58.491L291.814,58.491L291.016,61L290.214,58.487L287.605,58.491L289.722,56.958L288.927,54.48Z" style="fill:rgb(255,242,0);fill-rule:nonzero;"/>
        <path d="M278.126,51.56L280.215,53.094L282.3,51.56L281.509,54.038L283.626,55.571L281.013,55.571L280.211,58.084L279.413,55.568L276.801,55.571L278.921,54.038L278.126,51.56Z" style="fill:rgb(255,242,0);fill-rule:nonzero;"/>
        <path d="M272.312,50.114L271.51,47.598L268.902,47.602L271.019,46.068L270.223,43.591L272.312,45.124L274.398,43.591L273.603,46.068L275.723,47.602L273.111,47.602L272.312,50.114Z" style="fill:rgb(255,242,0);fill-rule:nonzero;"/>
        <path d="M269.414,34.272L271.5,32.739L270.705,35.216L272.825,36.749L270.213,36.749L269.414,39.262L268.612,36.742L266,36.749L268.12,35.216L267.325,32.739L269.414,34.272Z" style="fill:rgb(255,242,0);fill-rule:nonzero;"/>
        <path d="M273.111,25.865L272.312,28.374L271.51,25.862L268.902,25.865L271.019,24.332L270.223,21.854L272.312,23.388L274.398,21.854L273.603,24.332L275.723,25.865L273.111,25.865Z" style="fill:rgb(255,242,0);fill-rule:nonzero;"/>
        <path d="M281.028,17.896L280.229,20.405L279.43,17.896L276.818,17.896L278.935,16.366L278.144,13.885L280.229,15.419L282.315,13.885L281.523,16.366L283.643,17.896L281.028,17.896Z" style="fill:rgb(255,242,0);fill-rule:nonzero;"/>
        <path d="M291.814,15.011L291.016,17.52L290.217,15.008L287.605,15.011L289.722,13.478L288.93,11L291.016,12.53L293.105,11L292.31,13.478L294.43,15.011L291.814,15.011Z" style="fill:rgb(255,242,0);fill-rule:nonzero;"/>
        <path d="M302.601,17.896L301.803,20.405L301.004,17.896L298.392,17.896L300.509,16.366L299.717,13.885L301.803,15.419L303.892,13.885L303.096,16.366L305.213,17.896L302.601,17.896Z" style="fill:rgb(255,242,0);fill-rule:nonzero;"/>
        <path d="M310.521,25.865L309.722,28.374L308.92,25.862L306.312,25.865L308.428,24.332L307.633,21.854L309.722,23.388L311.808,21.854L311.013,24.332L313.133,25.865L310.521,25.865Z" style="fill:rgb(255,242,0);fill-rule:nonzero;"/>
        <path d="M316.003,36.781L313.388,36.781L312.589,39.29L311.791,36.777L309.178,36.781L311.295,35.247L310.504,32.77L312.589,34.303L314.675,32.77L313.883,35.247L316.003,36.781Z" style="fill:rgb(255,242,0);fill-rule:nonzero;"/>
        <path d="M307.633,43.624L309.722,45.157L311.808,43.624L311.013,46.105L313.133,47.635L310.521,47.635L309.722,50.144L308.92,47.631L306.312,47.635L308.428,46.105L307.633,43.624Z" style="fill:rgb(255,242,0);fill-rule:nonzero;"/>
        <path d="M301.834,58.081L301.035,55.569L298.423,55.572L300.54,54.039L299.749,51.558L301.838,53.095L303.92,51.558L303.128,54.039L305.248,55.572L302.633,55.572L301.834,58.081Z" style="fill:rgb(255,242,0);fill-rule:nonzero;"/>
    </g>
</svg>
